<mxfile host="app.diagrams.net" modified="2020-10-20T01:41:17.783Z" agent="5.0 (Windows NT 10.0; Win64; x64) AppleWebKit/537.36 (KHTML, like Gecko) Chrome/86.0.4240.75 Safari/537.36" etag="23qo7c7ngSbOOqDSnI6K" version="13.8.0" type="github">
  <diagram id="C5RBs43oDa-KdzZeNtuy" name="Page-1">
    <mxGraphModel dx="1422" dy="832" grid="1" gridSize="10" guides="1" tooltips="1" connect="1" arrows="1" fold="1" page="1" pageScale="1" pageWidth="827" pageHeight="1169" math="0" shadow="0">
      <root>
        <mxCell id="WIyWlLk6GJQsqaUBKTNV-0" />
        <mxCell id="WIyWlLk6GJQsqaUBKTNV-1" parent="WIyWlLk6GJQsqaUBKTNV-0" />
        <mxCell id="Jh151WMSlP3sTEiigZnL-0" value="Book&amp;nbsp;" style="rounded=0;whiteSpace=wrap;html=1;" vertex="1" parent="WIyWlLk6GJQsqaUBKTNV-1">
          <mxGeometry x="330" y="280" width="120" height="40" as="geometry" />
        </mxCell>
        <mxCell id="Jh151WMSlP3sTEiigZnL-1" value="Library" style="rounded=0;whiteSpace=wrap;html=1;" vertex="1" parent="WIyWlLk6GJQsqaUBKTNV-1">
          <mxGeometry x="50" y="280" width="120" height="40" as="geometry" />
        </mxCell>
        <mxCell id="Jh151WMSlP3sTEiigZnL-2" value="Fiction Category" style="rounded=0;whiteSpace=wrap;html=1;" vertex="1" parent="WIyWlLk6GJQsqaUBKTNV-1">
          <mxGeometry x="240" y="430" width="120" height="40" as="geometry" />
        </mxCell>
        <mxCell id="Jh151WMSlP3sTEiigZnL-3" value="&amp;nbsp; &amp;nbsp; Publisher" style="rounded=0;whiteSpace=wrap;html=1;" vertex="1" parent="WIyWlLk6GJQsqaUBKTNV-1">
          <mxGeometry x="610" y="280" width="120" height="40" as="geometry" />
        </mxCell>
        <mxCell id="Jh151WMSlP3sTEiigZnL-4" value="Owner" style="rounded=0;whiteSpace=wrap;html=1;" vertex="1" parent="WIyWlLk6GJQsqaUBKTNV-1">
          <mxGeometry x="50" y="410" width="120" height="40" as="geometry" />
        </mxCell>
        <mxCell id="Jh151WMSlP3sTEiigZnL-5" value="Author" style="rounded=0;whiteSpace=wrap;html=1;" vertex="1" parent="WIyWlLk6GJQsqaUBKTNV-1">
          <mxGeometry x="330" y="120" width="120" height="40" as="geometry" />
        </mxCell>
        <mxCell id="Jh151WMSlP3sTEiigZnL-6" value="Mystery Category" style="rounded=0;whiteSpace=wrap;html=1;" vertex="1" parent="WIyWlLk6GJQsqaUBKTNV-1">
          <mxGeometry x="430" y="430" width="120" height="40" as="geometry" />
        </mxCell>
        <mxCell id="Jh151WMSlP3sTEiigZnL-7" value="" style="endArrow=diamondThin;html=1;exitX=0.5;exitY=0;exitDx=0;exitDy=0;entryX=0.5;entryY=1;entryDx=0;entryDy=0;endFill=1;" edge="1" parent="WIyWlLk6GJQsqaUBKTNV-1" source="Jh151WMSlP3sTEiigZnL-0" target="Jh151WMSlP3sTEiigZnL-5">
          <mxGeometry width="50" height="50" relative="1" as="geometry">
            <mxPoint x="400" y="350" as="sourcePoint" />
            <mxPoint x="450" y="300" as="targetPoint" />
          </mxGeometry>
        </mxCell>
        <mxCell id="Jh151WMSlP3sTEiigZnL-8" value="has" style="text;html=1;strokeColor=none;fillColor=none;align=center;verticalAlign=middle;whiteSpace=wrap;rounded=0;" vertex="1" parent="WIyWlLk6GJQsqaUBKTNV-1">
          <mxGeometry x="390" y="210" width="40" height="20" as="geometry" />
        </mxCell>
        <mxCell id="Jh151WMSlP3sTEiigZnL-9" value="1..*" style="text;html=1;strokeColor=none;fillColor=none;align=center;verticalAlign=middle;whiteSpace=wrap;rounded=0;" vertex="1" parent="WIyWlLk6GJQsqaUBKTNV-1">
          <mxGeometry x="340" y="170" width="40" height="20" as="geometry" />
        </mxCell>
        <mxCell id="Jh151WMSlP3sTEiigZnL-10" value="" style="endArrow=open;html=1;entryX=0;entryY=0.5;entryDx=0;entryDy=0;exitX=1;exitY=0.5;exitDx=0;exitDy=0;endFill=0;" edge="1" parent="WIyWlLk6GJQsqaUBKTNV-1" source="Jh151WMSlP3sTEiigZnL-0" target="Jh151WMSlP3sTEiigZnL-3">
          <mxGeometry width="50" height="50" relative="1" as="geometry">
            <mxPoint x="420" y="320" as="sourcePoint" />
            <mxPoint x="450" y="400" as="targetPoint" />
            <Array as="points" />
          </mxGeometry>
        </mxCell>
        <mxCell id="Jh151WMSlP3sTEiigZnL-11" value="has" style="text;html=1;strokeColor=none;fillColor=none;align=center;verticalAlign=middle;whiteSpace=wrap;rounded=0;" vertex="1" parent="WIyWlLk6GJQsqaUBKTNV-1">
          <mxGeometry x="510" y="270" width="40" height="20" as="geometry" />
        </mxCell>
        <mxCell id="Jh151WMSlP3sTEiigZnL-12" value="1" style="text;html=1;strokeColor=none;fillColor=none;align=center;verticalAlign=middle;whiteSpace=wrap;rounded=0;" vertex="1" parent="WIyWlLk6GJQsqaUBKTNV-1">
          <mxGeometry x="560" y="300" width="40" height="20" as="geometry" />
        </mxCell>
        <mxCell id="Jh151WMSlP3sTEiigZnL-13" value="" style="endArrow=block;html=1;entryX=1;entryY=0.5;entryDx=0;entryDy=0;exitX=0;exitY=0.5;exitDx=0;exitDy=0;endFill=0;" edge="1" parent="WIyWlLk6GJQsqaUBKTNV-1" source="Jh151WMSlP3sTEiigZnL-0" target="Jh151WMSlP3sTEiigZnL-1">
          <mxGeometry width="50" height="50" relative="1" as="geometry">
            <mxPoint x="400" y="450" as="sourcePoint" />
            <mxPoint x="450" y="400" as="targetPoint" />
          </mxGeometry>
        </mxCell>
        <mxCell id="Jh151WMSlP3sTEiigZnL-14" value="display at" style="text;html=1;strokeColor=none;fillColor=none;align=center;verticalAlign=middle;whiteSpace=wrap;rounded=0;" vertex="1" parent="WIyWlLk6GJQsqaUBKTNV-1">
          <mxGeometry x="200" y="270" width="70" height="20" as="geometry" />
        </mxCell>
        <mxCell id="Jh151WMSlP3sTEiigZnL-15" value="1..*" style="text;html=1;strokeColor=none;fillColor=none;align=center;verticalAlign=middle;whiteSpace=wrap;rounded=0;" vertex="1" parent="WIyWlLk6GJQsqaUBKTNV-1">
          <mxGeometry x="450" y="300" width="40" height="20" as="geometry" />
        </mxCell>
        <mxCell id="Jh151WMSlP3sTEiigZnL-17" value="1..*" style="text;html=1;strokeColor=none;fillColor=none;align=center;verticalAlign=middle;whiteSpace=wrap;rounded=0;" vertex="1" parent="WIyWlLk6GJQsqaUBKTNV-1">
          <mxGeometry x="340" y="260" width="40" height="20" as="geometry" />
        </mxCell>
        <mxCell id="Jh151WMSlP3sTEiigZnL-18" value="" style="endArrow=block;html=1;exitX=0.5;exitY=0;exitDx=0;exitDy=0;entryX=0.75;entryY=1;entryDx=0;entryDy=0;endFill=0;" edge="1" parent="WIyWlLk6GJQsqaUBKTNV-1" source="Jh151WMSlP3sTEiigZnL-6" target="Jh151WMSlP3sTEiigZnL-0">
          <mxGeometry width="50" height="50" relative="1" as="geometry">
            <mxPoint x="400" y="440" as="sourcePoint" />
            <mxPoint x="450" y="390" as="targetPoint" />
          </mxGeometry>
        </mxCell>
        <mxCell id="Jh151WMSlP3sTEiigZnL-19" value="" style="endArrow=block;html=1;exitX=0.5;exitY=0;exitDx=0;exitDy=0;entryX=0.25;entryY=1;entryDx=0;entryDy=0;endFill=0;" edge="1" parent="WIyWlLk6GJQsqaUBKTNV-1" source="Jh151WMSlP3sTEiigZnL-2" target="Jh151WMSlP3sTEiigZnL-0">
          <mxGeometry width="50" height="50" relative="1" as="geometry">
            <mxPoint x="300" y="430" as="sourcePoint" />
            <mxPoint x="350" y="380" as="targetPoint" />
          </mxGeometry>
        </mxCell>
        <mxCell id="Jh151WMSlP3sTEiigZnL-20" value="" style="endArrow=diamondThin;html=1;exitX=0.5;exitY=1;exitDx=0;exitDy=0;entryX=0.5;entryY=0;entryDx=0;entryDy=0;endFill=0;" edge="1" parent="WIyWlLk6GJQsqaUBKTNV-1" source="Jh151WMSlP3sTEiigZnL-1" target="Jh151WMSlP3sTEiigZnL-4">
          <mxGeometry width="50" height="50" relative="1" as="geometry">
            <mxPoint x="400" y="440" as="sourcePoint" />
            <mxPoint x="140" y="400" as="targetPoint" />
          </mxGeometry>
        </mxCell>
        <mxCell id="Jh151WMSlP3sTEiigZnL-21" value="develop" style="text;html=1;strokeColor=none;fillColor=none;align=center;verticalAlign=middle;whiteSpace=wrap;rounded=0;" vertex="1" parent="WIyWlLk6GJQsqaUBKTNV-1">
          <mxGeometry x="120" y="360" width="70" height="20" as="geometry" />
        </mxCell>
        <mxCell id="Jh151WMSlP3sTEiigZnL-22" value="1..*" style="text;html=1;strokeColor=none;fillColor=none;align=center;verticalAlign=middle;whiteSpace=wrap;rounded=0;" vertex="1" parent="WIyWlLk6GJQsqaUBKTNV-1">
          <mxGeometry x="110" y="320" width="40" height="20" as="geometry" />
        </mxCell>
      </root>
    </mxGraphModel>
  </diagram>
</mxfile>
